<svg width="30" height="30" viewBox="0 0 30 30" fill="none" xmlns="http://www.w3.org/2000/svg">
<g id="Frame 831">
<path id="&#239;&#138;&#160;" d="M16.6988 0.497559V2.48859C18.6681 2.48859 20.513 2.98634 22.2335 3.98186C23.8711 4.95663 25.1771 6.26324 26.1513 7.90169C27.1464 9.6231 27.6439 11.4689 27.6439 13.4392H29.6339C29.6339 11.0956 29.0431 8.91794 27.8615 6.90618C26.7214 4.95663 25.1771 3.41151 23.2285 2.27082C21.2178 1.08864 19.0412 0.497559 16.6988 0.497559ZM6.40666 3.4841C5.84697 3.4841 5.35983 3.66039 4.94524 4.01296L1.74256 7.27949L1.83584 7.21727C1.31761 7.65281 0.975577 8.19205 0.809742 8.83498C0.664637 9.47792 0.706096 10.1001 0.934118 10.7016C1.51454 12.3193 2.29189 13.9785 3.26617 15.6791C4.6343 18.0227 6.26155 20.1278 8.14792 21.9944C11.1744 25.0432 14.9368 27.449 19.435 29.2119H19.4661C20.0673 29.4193 20.6684 29.4608 21.2696 29.3363C21.8915 29.2119 22.4408 28.9423 22.9176 28.5275L26.0581 25.3854C26.4726 24.9706 26.6799 24.4625 26.6799 23.861C26.6799 23.2388 26.4726 22.7203 26.0581 22.3055L21.9847 18.199C21.5702 17.7842 21.0519 17.5768 20.43 17.5768C19.8082 17.5768 19.2899 17.7842 18.8753 18.199L16.9164 20.1901C15.341 19.4434 13.9729 18.5205 12.812 17.4213C11.6512 16.3013 10.7287 14.9429 10.0447 13.3459L12.0347 11.3549C12.47 10.8986 12.6876 10.3594 12.6876 9.73717C12.6876 9.09423 12.4389 8.57573 11.9414 8.18168L12.0347 8.27501L7.86808 4.01296C7.45349 3.66039 6.96635 3.4841 6.40666 3.4841ZM16.6988 4.47961V6.47064C17.9633 6.47064 19.1241 6.78174 20.1813 7.40393C21.2592 8.02613 22.1091 8.87646 22.731 9.95494C23.3529 11.0127 23.6638 12.1741 23.6638 13.4392H25.6538C25.6538 11.8215 25.2496 10.3179 24.4412 8.92831C23.6327 7.58022 22.5548 6.50175 21.2074 5.69289C19.8185 4.88404 18.3157 4.47961 16.6988 4.47961ZM6.40666 5.47512C6.46885 5.47512 6.5414 5.50623 6.62432 5.56845L10.6976 9.73717C10.7184 9.82013 10.6976 9.89272 10.6354 9.95494L7.68151 12.8793L7.89917 13.5015L8.30339 14.3725C8.63506 15.0777 9.01856 15.7621 9.45387 16.4258C10.055 17.3591 10.7184 18.1575 11.4439 18.8212C12.4182 19.7753 13.5894 20.6463 14.9575 21.4344C15.6416 21.8285 16.222 22.1189 16.6988 22.3055L17.3207 22.5855L20.3368 19.5679C20.3782 19.5264 20.4093 19.5056 20.43 19.5056C20.4508 19.5056 20.4819 19.5264 20.5233 19.5679L24.721 23.7677C24.7625 23.8092 24.7832 23.8403 24.7832 23.861C24.7832 23.861 24.7625 23.8818 24.721 23.9232L21.6116 27.0031C21.1556 27.3972 20.6581 27.5009 20.1191 27.3142C15.8903 25.6757 12.3663 23.4358 9.54715 20.5945C7.80589 18.8523 6.28228 16.8717 4.97634 14.6525C4.04352 13.0555 3.31799 11.5104 2.79976 10.0172V9.98604C2.71684 9.79939 2.70648 9.58162 2.76866 9.33274C2.83085 9.06312 2.94486 8.85572 3.1107 8.71054L6.189 5.56845C6.25119 5.50623 6.32374 5.47512 6.40666 5.47512ZM16.6988 8.46166V10.4527C17.5279 10.4527 18.2327 10.743 18.8132 11.3238C19.3936 11.9045 19.6838 12.6096 19.6838 13.4392H21.6738C21.6738 12.5474 21.4458 11.7178 20.9897 10.9504C20.5544 10.1831 19.9533 9.58162 19.1863 9.14608C18.4193 8.6898 17.5901 8.46166 16.6988 8.46166Z" fill="#111113"/>
</g>
</svg>
