<svg width="172" height="32" viewBox="0 0 172 32" fill="none" xmlns="http://www.w3.org/2000/svg">
<g id="Rapid Reads">
<path d="M0.0195618 25.2837V7.04738H4.69555V11.4228L4.36155 10.7882C4.76235 9.25177 5.41921 8.21637 6.33214 7.68198C7.26734 7.12531 8.36954 6.84698 9.63873 6.84698H10.7075V11.189H9.13773C7.91307 11.189 6.92221 11.5675 6.16514 12.3246C5.40808 13.0594 5.02955 14.1059 5.02955 15.4642V25.2837H0.0195618Z" fill="white"/>
<path d="M17.2119 25.6845C15.8982 25.6845 14.7626 25.473 13.8051 25.0499C12.8476 24.6269 12.1128 24.0257 11.6007 23.2463C11.0886 22.4447 10.8325 21.4984 10.8325 20.4073C10.8325 19.3831 11.0663 18.4813 11.5339 17.7019C12.0015 16.9003 12.714 16.2323 13.6715 15.698C14.6512 15.1636 15.8648 14.785 17.3121 14.5624L22.8899 13.6606V17.3345L18.2139 18.1695C17.5014 18.3031 16.9558 18.5369 16.5773 18.8709C16.1988 19.1827 16.0095 19.6391 16.0095 20.2403C16.0095 20.797 16.221 21.2312 16.6441 21.5429C17.0672 21.8547 17.5904 22.0105 18.2139 22.0105C19.0378 22.0105 19.7614 21.8324 20.3849 21.4761C21.0084 21.1199 21.4871 20.6411 21.8211 20.0399C22.1773 19.4165 22.3555 18.7373 22.3555 18.0025V13.2598C22.3555 12.5695 22.0771 11.9906 21.5205 11.523C20.9861 11.0554 20.2513 10.8216 19.3161 10.8216C18.4254 10.8216 17.635 11.0665 16.9447 11.5564C16.2767 12.0462 15.7868 12.692 15.4751 13.4936L11.4671 11.5898C11.8234 10.5655 12.3912 9.68597 13.1705 8.95117C13.9498 8.21637 14.885 7.64858 15.9761 7.24778C17.0672 6.84698 18.2584 6.64658 19.5499 6.64658C21.0863 6.64658 22.4445 6.92491 23.6247 7.48158C24.8048 8.03824 25.7177 8.81757 26.3635 9.81957C27.0315 10.7993 27.3655 11.946 27.3655 13.2598V25.2837H22.6895V22.3445L23.8251 22.1441C23.2907 22.9457 22.7006 23.6137 22.0549 24.1481C21.4091 24.6603 20.6855 25.0388 19.8839 25.2837C19.0823 25.5509 18.1916 25.6845 17.2119 25.6845Z" fill="white"/>
<path d="M29.7037 31.9637V7.04738H34.3797V10.521L33.9455 9.51897C34.5467 8.60604 35.3594 7.90464 36.3837 7.41478C37.4302 6.90264 38.6215 6.64658 39.9575 6.64658C41.6943 6.64658 43.2641 7.06964 44.6669 7.91577C46.0697 8.7619 47.183 9.90864 48.0069 11.356C48.8307 12.781 49.2427 14.3842 49.2427 16.1655C49.2427 17.9246 48.8307 19.5278 48.0069 20.9751C47.2053 22.4225 46.1031 23.5692 44.7003 24.4153C43.2975 25.2615 41.7054 25.6845 39.9241 25.6845C38.6772 25.6845 37.5193 25.4619 36.4505 25.0165C35.404 24.5489 34.5578 23.8698 33.9121 22.9791L34.7137 21.9437V31.9637H29.7037ZM39.3229 21.1755C40.2581 21.1755 41.0819 20.964 41.7945 20.5409C42.507 20.1179 43.0637 19.5278 43.4645 18.7707C43.8653 18.0137 44.0657 17.1453 44.0657 16.1655C44.0657 15.1858 43.8653 14.3286 43.4645 13.5938C43.0637 12.8367 42.507 12.2466 41.7945 11.8236C41.0819 11.3782 40.2581 11.1556 39.3229 11.1556C38.4322 11.1556 37.6306 11.3671 36.9181 11.7902C36.2278 12.2132 35.6823 12.8033 35.2815 13.5604C34.903 14.3174 34.7137 15.1858 34.7137 16.1655C34.7137 17.1453 34.903 18.0137 35.2815 18.7707C35.6823 19.5278 36.2278 20.1179 36.9181 20.5409C37.6306 20.964 38.4322 21.1755 39.3229 21.1755Z" fill="white"/>
<path d="M50.8409 25.2837V7.04738H55.8509V25.2837H50.8409ZM50.8409 5.41078V0.400798H55.8509V5.41078H50.8409Z" fill="white"/>
<path d="M66.7648 25.6845C64.9835 25.6845 63.3914 25.2615 61.9886 24.4153C60.5858 23.5692 59.4725 22.4225 58.6486 20.9751C57.847 19.5278 57.4462 17.9246 57.4462 16.1655C57.4462 14.3842 57.8582 12.781 58.682 11.356C59.5059 9.90864 60.6192 8.7619 62.022 7.91577C63.4248 7.06964 64.9946 6.64658 66.7314 6.64658C68.0674 6.64658 69.2475 6.90264 70.2718 7.41478C71.3183 7.90464 72.1422 8.60604 72.7434 9.51897L71.9752 10.521V0H76.9852V25.2837H72.3092V21.9437L72.7768 22.9791C72.1533 23.8698 71.3072 24.5489 70.2384 25.0165C69.1696 25.4619 68.0117 25.6845 66.7648 25.6845ZM67.366 21.1755C68.2789 21.1755 69.0805 20.964 69.7708 20.5409C70.4611 20.1179 70.9955 19.5278 71.374 18.7707C71.7748 18.0137 71.9752 17.1453 71.9752 16.1655C71.9752 15.1858 71.7748 14.3174 71.374 13.5604C70.9955 12.8033 70.4611 12.2132 69.7708 11.7902C69.0805 11.3671 68.2789 11.1556 67.366 11.1556C66.4531 11.1556 65.6292 11.3782 64.8944 11.8236C64.1819 12.2466 63.6252 12.8367 63.2244 13.5938C62.8236 14.3286 62.6232 15.1858 62.6232 16.1655C62.6232 17.1453 62.8236 18.0137 63.2244 18.7707C63.6252 19.5278 64.1819 20.1179 64.8944 20.5409C65.6292 20.964 66.4531 21.1755 67.366 21.1755Z" fill="white"/>
<path d="M87.8346 25.2837V7.04738H92.5106V11.4228L92.1766 10.7882C92.5774 9.25177 93.2343 8.21637 94.1472 7.68198C95.0824 7.12531 96.1846 6.84698 97.4538 6.84698H98.5226V11.189H96.9528C95.7281 11.189 94.7373 11.5675 93.9802 12.3246C93.2231 13.0594 92.8446 14.1059 92.8446 15.4642V25.2837H87.8346Z" fill="white"/>
<path d="M108.167 25.6845C106.229 25.6845 104.548 25.2615 103.123 24.4153C101.698 23.5469 100.596 22.3891 99.8166 20.9417C99.0372 19.4944 98.6476 17.8912 98.6476 16.1321C98.6476 14.3063 99.0484 12.6808 99.85 11.2558C100.674 9.8307 101.776 8.70624 103.157 7.88238C104.537 7.05851 106.096 6.64658 107.833 6.64658C109.28 6.64658 110.56 6.88038 111.674 7.34798C112.787 7.79331 113.722 8.42791 114.479 9.25177C115.258 10.0756 115.849 11.0331 116.249 12.1242C116.65 13.193 116.851 14.362 116.851 15.6312C116.851 15.9874 116.828 16.3437 116.784 16.6999C116.761 17.0339 116.706 17.3234 116.617 17.5683H102.956V13.8944H113.778L111.406 15.6312C111.629 14.6737 111.618 13.8276 111.373 13.0928C111.128 12.3357 110.694 11.7456 110.07 11.3226C109.469 10.8772 108.723 10.6546 107.833 10.6546C106.964 10.6546 106.218 10.8661 105.595 11.2892C104.971 11.7122 104.504 12.3357 104.192 13.1596C103.88 13.9834 103.758 14.9854 103.825 16.1655C103.735 17.1898 103.858 18.0916 104.192 18.8709C104.526 19.6503 105.038 20.2626 105.728 20.7079C106.419 21.131 107.254 21.3425 108.233 21.3425C109.124 21.3425 109.881 21.1644 110.505 20.8081C111.15 20.4519 111.651 19.962 112.008 19.3385L116.016 21.2423C115.659 22.133 115.091 22.9123 114.312 23.5803C113.555 24.2483 112.653 24.7716 111.607 25.1501C110.56 25.5064 109.413 25.6845 108.167 25.6845Z" fill="white"/>
<path d="M124.109 25.6845C122.796 25.6845 121.66 25.473 120.702 25.0499C119.745 24.6269 119.01 24.0257 118.498 23.2463C117.986 22.4447 117.73 21.4984 117.73 20.4073C117.73 19.3831 117.964 18.4813 118.431 17.7019C118.899 16.9003 119.611 16.2323 120.569 15.698C121.549 15.1636 122.762 14.785 124.209 14.5624L129.787 13.6606V17.3345L125.111 18.1695C124.399 18.3031 123.853 18.5369 123.475 18.8709C123.096 19.1827 122.907 19.6391 122.907 20.2403C122.907 20.797 123.118 21.2312 123.541 21.5429C123.965 21.8547 124.488 22.0105 125.111 22.0105C125.935 22.0105 126.659 21.8324 127.282 21.4761C127.906 21.1199 128.384 20.6411 128.718 20.0399C129.075 19.4165 129.253 18.7373 129.253 18.0025V13.2598C129.253 12.5695 128.975 11.9906 128.418 11.523C127.883 11.0554 127.149 10.8216 126.213 10.8216C125.323 10.8216 124.532 11.0665 123.842 11.5564C123.174 12.0462 122.684 12.692 122.372 13.4936L118.364 11.5898C118.721 10.5655 119.289 9.68597 120.068 8.95117C120.847 8.21637 121.782 7.64858 122.873 7.24778C123.965 6.84698 125.156 6.64658 126.447 6.64658C127.984 6.64658 129.342 6.92491 130.522 7.48158C131.702 8.03824 132.615 8.81757 133.261 9.81957C133.929 10.7993 134.263 11.946 134.263 13.2598V25.2837H129.587V22.3445L130.722 22.1441C130.188 22.9457 129.598 23.6137 128.952 24.1481C128.307 24.6603 127.583 25.0388 126.781 25.2837C125.98 25.5509 125.089 25.6845 124.109 25.6845Z" fill="white"/>
<path d="M145.185 25.6845C143.404 25.6845 141.811 25.2615 140.409 24.4153C139.006 23.5692 137.893 22.4225 137.069 20.9751C136.267 19.5278 135.866 17.9246 135.866 16.1655C135.866 14.3842 136.278 12.781 137.102 11.356C137.926 9.90864 139.039 8.7619 140.442 7.91577C141.845 7.06964 143.415 6.64658 145.151 6.64658C146.487 6.64658 147.668 6.90264 148.692 7.41478C149.738 7.90464 150.562 8.60604 151.163 9.51897L150.395 10.521V0H155.405V25.2837H150.729V21.9437L151.197 22.9791C150.573 23.8698 149.727 24.5489 148.658 25.0165C147.59 25.4619 146.432 25.6845 145.185 25.6845ZM145.786 21.1755C146.699 21.1755 147.501 20.964 148.191 20.5409C148.881 20.1179 149.416 19.5278 149.794 18.7707C150.195 18.0137 150.395 17.1453 150.395 16.1655C150.395 15.1858 150.195 14.3174 149.794 13.5604C149.416 12.8033 148.881 12.2132 148.191 11.7902C147.501 11.3671 146.699 11.1556 145.786 11.1556C144.873 11.1556 144.049 11.3782 143.314 11.8236C142.602 12.2466 142.045 12.8367 141.644 13.5938C141.244 14.3286 141.043 15.1858 141.043 16.1655C141.043 17.1453 141.244 18.0137 141.644 18.7707C142.045 19.5278 142.602 20.1179 143.314 20.5409C144.049 20.964 144.873 21.1755 145.786 21.1755Z" fill="white"/>
<path d="M164.886 25.6845C162.882 25.6845 161.134 25.2169 159.642 24.2817C158.172 23.3243 157.17 22.0439 156.636 20.4407L160.31 18.7039C160.778 19.6837 161.412 20.4519 162.214 21.0085C163.015 21.5652 163.906 21.8435 164.886 21.8435C165.598 21.8435 166.144 21.6988 166.522 21.4093C166.901 21.1199 167.09 20.7191 167.09 20.2069C167.09 19.9397 167.023 19.7171 166.89 19.5389C166.756 19.3385 166.556 19.1604 166.289 19.0045C166.021 18.8487 165.687 18.7151 165.287 18.6037L162.18 17.7353C160.689 17.3123 159.542 16.6331 158.74 15.698C157.939 14.7405 157.538 13.616 157.538 12.3246C157.538 11.189 157.827 10.1981 158.406 9.35197C158.985 8.50584 159.798 7.84897 160.844 7.38138C161.891 6.89151 163.093 6.64658 164.452 6.64658C166.233 6.64658 167.792 7.06964 169.128 7.91577C170.486 8.73964 171.443 9.90864 172 11.4228L168.293 13.1596C168.025 12.4025 167.536 11.8013 166.823 11.356C166.133 10.8884 165.342 10.6546 164.452 10.6546C163.806 10.6546 163.294 10.7882 162.915 11.0554C162.559 11.3226 162.381 11.69 162.381 12.1576C162.381 12.4025 162.448 12.6252 162.581 12.8256C162.715 13.026 162.926 13.2041 163.216 13.36C163.528 13.5158 163.906 13.6606 164.351 13.7942L167.257 14.6626C168.771 15.1079 169.929 15.787 170.731 16.6999C171.532 17.5906 171.933 18.6928 171.933 20.0065C171.933 21.1421 171.633 22.133 171.031 22.9791C170.452 23.8253 169.64 24.4933 168.593 24.9831C167.547 25.4507 166.311 25.6845 164.886 25.6845Z" fill="white"/>
</g>
</svg>
