<svg width="125" height="125" viewBox="0 0 125 125" fill="none" xmlns="http://www.w3.org/2000/svg">
<path d="M44.7024 12.3913C50.816 -4.13044 74.184 -4.13043 80.2976 12.3913L85.9963 27.7918C87.9184 32.9862 92.0138 37.0816 97.2082 39.0037L112.609 44.7024C129.13 50.816 129.13 74.184 112.609 80.2976L97.2082 85.9963C92.0138 87.9184 87.9184 92.0138 85.9963 97.2082L80.2976 112.609C74.184 129.13 50.816 129.13 44.7024 112.609L39.0037 97.2082C37.0816 92.0138 32.9862 87.9184 27.7918 85.9963L12.3913 80.2976C-4.13044 74.184 -4.13043 50.816 12.3913 44.7024L27.7918 39.0037C32.9862 37.0816 37.0816 32.9862 39.0037 27.7918L44.7024 12.3913Z" fill="#BFAFFF"/>
<path d="M61.1312 49.3214H50.2102V39.8955H71.2072V88H61.1312V49.3214Z" fill="white" fill-opacity="0.98"/>
</svg>
