<svg width="193" height="50" viewBox="0 0 193 50" fill="none" xmlns="http://www.w3.org/2000/svg">
<g id="Group 21">
<path id="Vector" d="M114.668 16.708C114.701 17.1683 114.701 17.6287 114.701 18.089C114.701 32.1298 104.014 48.308 84.4819 48.308C78.4644 48.308 72.8744 46.5651 68.1722 43.5401C69.0272 43.6387 69.8491 43.6716 70.737 43.6716C75.7022 43.6716 80.2729 41.9946 83.9228 39.1338C79.2535 39.0351 75.3405 35.9771 73.9923 31.7681C74.65 31.8667 75.3076 31.9325 75.9982 31.9325C76.9518 31.9325 77.9054 31.8009 78.7932 31.5709C73.9266 30.5843 70.2766 26.3096 70.2766 21.1471V21.0156C71.6905 21.8048 73.3347 22.298 75.0774 22.3637C72.2166 20.4565 70.3424 17.2012 70.3424 13.5183C70.3424 11.5454 70.8684 9.73688 71.7891 8.15852C77.0175 14.6035 84.8764 18.8123 93.6888 19.2728C93.5244 18.4836 93.4257 17.6616 93.4257 16.8395C93.4257 10.9864 98.1608 6.21851 104.047 6.21851C107.105 6.21851 109.867 7.50092 111.807 9.57251C114.207 9.11218 116.509 8.22431 118.548 7.00769C117.759 9.47392 116.082 11.5455 113.879 12.8607C116.016 12.6307 118.088 12.0386 119.995 11.2167C118.548 13.3211 116.739 15.1953 114.668 16.708Z" fill="url(#paint0_linear_56_270)"/>
<path id="Vector_2" d="M22.6902 15.196C16.2528 15.196 11.0604 20.3884 11.0604 26.8258C11.0604 33.2631 16.2528 38.4555 22.6902 38.4555C29.1275 38.4555 34.3199 33.2631 34.3199 26.8258C34.3199 20.3884 29.1275 15.196 22.6902 15.196ZM22.6902 34.3866C18.5302 34.3866 15.1293 30.9959 15.1293 26.8258C15.1293 22.6557 18.52 19.2649 22.6902 19.2649C26.8603 19.2649 30.251 22.6557 30.251 26.8258C30.251 30.9959 26.8501 34.3866 22.6902 34.3866ZM37.5082 14.7203C37.5082 16.2284 36.2936 17.4329 34.7956 17.4329C33.2875 17.4329 32.083 16.2183 32.083 14.7203C32.083 13.2223 33.2976 12.0077 34.7956 12.0077C36.2936 12.0077 37.5082 13.2223 37.5082 14.7203ZM45.2108 17.4734C45.0387 13.8397 44.2087 10.6211 41.5467 7.9692C38.8949 5.31733 35.6762 4.48736 32.0425 4.30517C28.2975 4.09261 17.0727 4.09261 13.3277 4.30517C9.70411 4.47724 6.48543 5.30721 3.82344 7.95907C1.16146 10.6109 0.341605 13.8296 0.159416 17.4633C-0.0531385 21.2083 -0.0531385 32.4332 0.159416 36.1782C0.331483 39.8118 1.16146 43.0305 3.82344 45.6824C6.48543 48.3342 9.69399 49.1642 13.3277 49.3464C17.0727 49.559 28.2975 49.559 32.0425 49.3464C35.6762 49.1743 38.8949 48.3444 41.5467 45.6824C44.1986 43.0305 45.0286 39.8118 45.2108 36.1782C45.4233 32.4332 45.4233 21.2184 45.2108 17.4734ZM40.3726 40.1965C39.5832 42.1803 38.0548 43.7087 36.0608 44.5083C33.075 45.6925 25.9898 45.4192 22.6902 45.4192C19.3905 45.4192 12.2952 45.6824 9.31949 44.5083C7.33565 43.7188 5.80728 42.1904 5.00768 40.1965C3.82344 37.2106 4.09673 30.1254 4.09673 26.8258C4.09673 23.5261 3.83357 16.4309 5.00768 13.4551C5.79716 11.4713 7.32553 9.94291 9.31949 9.1433C12.3054 7.95907 19.3905 8.23236 22.6902 8.23236C25.9898 8.23236 33.0851 7.9692 36.0608 9.1433C38.0447 9.93279 39.573 11.4612 40.3726 13.4551C41.5569 16.441 41.2836 23.5261 41.2836 26.8258C41.2836 30.1254 41.5569 37.2207 40.3726 40.1965Z" fill="url(#paint1_linear_56_270)"/>
<path id="Vector_3" d="M193 25.1016C193 11.235 181.765 0 167.898 0C154.032 0 142.797 11.235 142.797 25.1016C142.797 37.6302 151.976 48.015 163.976 49.8996V32.3578H157.6V25.1016H163.976V19.5712C163.976 13.2806 167.721 9.80583 173.457 9.80583C176.204 9.80583 179.077 10.2957 179.077 10.2957V16.4699H175.911C172.793 16.4699 171.82 18.4052 171.82 20.39V25.1016H178.782L177.669 32.3578H171.82V49.8996C183.821 48.015 193 37.6302 193 25.1016Z" fill="url(#paint2_linear_56_270)"/>
</g>
<defs>
<linearGradient id="paint0_linear_56_270" x1="57.9688" y1="27.7273" x2="136.206" y2="28.6687" gradientUnits="userSpaceOnUse">
<stop stop-color="white"/>
<stop offset="1" stop-color="#BFAFFF"/>
</linearGradient>
<linearGradient id="paint1_linear_56_270" x1="-8.93299" y1="27.3259" x2="59.5661" y2="27.9955" gradientUnits="userSpaceOnUse">
<stop stop-color="white"/>
<stop offset="1" stop-color="#BFAFFF"/>
</linearGradient>
<linearGradient id="paint2_linear_56_270" x1="132.912" y1="25.5" x2="208.708" y2="26.2453" gradientUnits="userSpaceOnUse">
<stop stop-color="white"/>
<stop offset="1" stop-color="#BFAFFF"/>
</linearGradient>
</defs>
</svg>
